<svg width="35" height="40" viewBox="0 0 35 40" fill="none" xmlns="http://www.w3.org/2000/svg">
<path d="M19.3174 1.1551C18.0796 0.440341 16.5545 0.440341 15.3168 1.1551L1.9997 8.84524C0.762267 9.55981 0 10.8802 0 12.3092V27.6908C0 29.1198 0.762266 30.4402 1.9997 31.1548L15.3168 38.8449C16.5545 39.5597 18.0796 39.5597 19.3174 38.8449L32.6344 31.1548C33.8719 30.4402 34.6341 29.1198 34.6341 27.6908V12.3092C34.6341 10.8802 33.8719 9.55981 32.6344 8.84524L19.3174 1.1551Z" fill="url(#paint0_linear)"/>
<path d="M15.994 19.1426C15.5424 19.1426 15.1865 19.5384 15.1865 20.0217C15.1865 20.5034 15.5507 20.9009 15.994 20.9009C16.4449 20.9009 16.8007 20.5034 16.8007 20.0217C16.8099 19.5376 16.4449 19.1426 15.994 19.1426ZM18.884 19.1426C18.4324 19.1426 18.0765 19.5384 18.0765 20.0217C18.0765 20.5034 18.4407 20.9009 18.884 20.9009C19.3349 20.9009 19.6907 20.5034 19.6907 20.0217C19.6899 19.5376 19.3349 19.1426 18.884 19.1426Z" fill="white"/>
<path d="M22.7317 12.5H12.1225C11.9089 12.5005 11.6975 12.5432 11.5003 12.6254C11.3032 12.7077 11.1242 12.8279 10.9735 12.9794C10.8228 13.1308 10.7035 13.3105 10.6222 13.508C10.541 13.7056 10.4995 13.9172 10.5 14.1308V24.8342C10.5 25.7367 11.2283 26.465 12.1225 26.465H21.1L20.6792 24.9992L21.6933 25.9417L22.6508 26.8283L24.3542 28.3333V14.1308C24.3547 13.9172 24.3132 13.7056 24.2319 13.508C24.1507 13.3105 24.0313 13.1308 23.8807 12.9794C23.73 12.8279 23.551 12.7077 23.3539 12.6254C23.1567 12.5432 22.9453 12.5005 22.7317 12.5ZM19.675 22.8392C19.675 22.8392 19.39 22.4992 19.1533 22.1967C20.19 21.9033 20.5858 21.255 20.5858 21.255C20.2608 21.4683 19.9525 21.62 19.675 21.7233C18.6647 22.1461 17.5522 22.2615 16.4767 22.055C16.0793 21.9769 15.6898 21.8626 15.3133 21.7133C15.1148 21.6379 14.9218 21.5485 14.7358 21.4458C14.7117 21.4283 14.6883 21.4217 14.665 21.4058C14.6525 21.3999 14.6414 21.3914 14.6325 21.3808C14.49 21.3025 14.4108 21.2475 14.4108 21.2475C14.4108 21.2475 14.7908 21.8808 15.7967 22.1817C15.5592 22.4817 15.2658 22.8392 15.2658 22.8392C13.5167 22.7833 12.8525 21.6358 12.8525 21.6358C12.8525 19.0867 13.9925 17.0208 13.9925 17.0208C15.1325 16.165 16.2167 16.1892 16.2167 16.1892L16.2958 16.2842C14.8708 16.6967 14.2133 17.3217 14.2133 17.3217C14.2133 17.3217 14.3883 17.2267 14.6808 17.0925C15.5275 16.7208 16.2 16.6175 16.4775 16.5933C16.525 16.5858 16.565 16.5775 16.6125 16.5775C17.9852 16.3925 19.381 16.6534 20.5942 17.3217C20.5942 17.3217 19.9683 16.7283 18.6225 16.3167L18.7333 16.19C18.7333 16.19 19.8183 16.1658 20.9575 17.0217C20.9575 17.0217 22.0975 19.0875 22.0975 21.6367C22.0975 21.6358 21.425 22.7833 19.675 22.8392Z" fill="white"/>
<defs>
<linearGradient id="paint0_linear" x1="31.6037" y1="36.5" x2="-4.52095" y2="5.22138" gradientUnits="userSpaceOnUse">
<stop stop-color="#FF8800"/>
<stop offset="1" stop-color="#E2A907"/>
</linearGradient>
</defs>
</svg>
