<svg width="10" height="14" viewBox="0 0 10 14" fill="none" xmlns="http://www.w3.org/2000/svg">
<path d="M8.90517 5.98587L9.94404 4.947L4.99705 0L0.0500488 4.947L1.08892 5.98587L0.0500488 7.02473L1.06418 8.03887L0.0500488 9.053L4.99705 14L9.94404 9.053L8.90517 8.03887L9.91931 7.02473L8.90517 5.98587ZM0.693158 4.947L4.99705 0.667845L9.2762 4.947L8.58362 5.63958L4.99705 2.053L1.38574 5.63958L0.693158 4.947ZM4.99705 9.25088L2.7709 7.02473L4.99705 4.79859L7.22319 7.02473L4.99705 9.25088ZM7.54475 7.32156L8.23733 8.01413L4.99705 11.3039L1.73203 8.03887L2.42461 7.34629L4.99705 9.89399L7.54475 7.32156ZM4.99705 4.10601L2.42461 6.67845L1.73203 5.98587L4.99705 2.72085L8.26206 5.98587L7.54475 6.67845L4.99705 4.10601ZM0.693158 7L1.38574 6.30742L2.07832 7L1.38574 7.69258L0.693158 7ZM9.2762 9.053L4.99705 13.3569L0.693158 9.053L1.38574 8.36042L4.97231 11.947L8.55888 8.36042L9.2762 9.053ZM7.89104 7L8.58362 6.30742L9.2762 7L8.58362 7.69258L7.89104 7Z" fill="white"/>
</svg>
