<?xml version="1.0" encoding="UTF-8" standalone="no"?>
<!DOCTYPE svg PUBLIC "-//W3C//DTD SVG 1.1//EN" "http://www.w3.org/Graphics/SVG/1.1/DTD/svg11.dtd">
<svg version="1.1" xmlns="http://www.w3.org/2000/svg" xmlns:xlink="http://www.w3.org/1999/xlink" preserveAspectRatio="xMidYMid meet" viewBox="0 0 640 640" width="640" height="640"><defs><path d="M146.58 270.05L146.58 322.34L198.92 322.34C198.92 299.08 198.92 286.16 198.92 283.58C198.92 276.15 192.81 270.05 185.39 270.05C185.38 270.05 185.36 270.05 185.35 270.05C180.18 270.05 167.26 270.05 146.58 270.05Z" id="a3FDEojeEa"></path><path d="M134.5 269.41C130.49 269.41 128.26 269.41 127.82 269.41C120.4 269.41 114.29 275.52 114.29 282.94C114.29 283.38 114.29 285.61 114.29 289.62L134.5 289.62L134.5 269.41Z" id="bC1NyADQQ"></path><path d="M114.29 301.7L134.5 301.7L134.5 321.92L114.29 321.92L114.29 301.7Z" id="e2oiBZ5HVV"></path><path d="M178.88 354.04C182.89 354.04 185.11 354.04 185.56 354.04C192.98 354.04 199.09 347.93 199.09 340.51C199.09 340.5 199.09 340.48 199.09 340.47C199.09 340.04 199.09 337.88 199.09 334L178.88 334L178.88 354.04Z" id="a1kiDW7o9T"></path><path d="M146.58 334L166.79 334L166.79 354.21L146.58 354.21L146.58 334Z" id="aHjqD1aUu"></path><path d="M114.29 334C114.29 338.01 114.29 340.23 114.29 340.68C114.29 348.1 120.4 354.21 127.82 354.21C128.26 354.21 130.49 354.21 134.5 354.21L134.5 334L114.29 334Z" id="b5x1Fglswp"></path><path d="M250.58 274.81L242.66 274.81L242.66 348.81L284.58 348.81L284.58 341.74L250.58 341.74L250.58 274.81Z" id="a93ypKphk2"></path><path d="M283.77 322.34C283.77 322.53 283.77 324.03 283.77 324.21C284.29 338.6 296.22 350.17 310.62 350.25C310.72 350.25 311.54 350.25 311.64 350.25C318.85 350.24 325.82 347.66 331.3 342.98C331.3 342.96 331.3 342.89 331.3 342.77L327.72 336.94C327.49 337.06 327.37 337.13 327.34 337.15C323.09 341.11 317.5 343.35 311.68 343.4C311.54 343.41 311.39 343.41 311.25 343.41C300.51 343.41 291.67 334.57 291.67 323.83C291.67 323.62 291.67 323.4 291.68 323.19C294.35 323.19 307.68 323.19 331.68 323.19L331.68 322.77C331.68 320.52 331.68 319.27 331.68 319.02C332.06 304 323.34 294.43 310.02 294.43C294.62 294.43 283.77 305.87 283.77 322.34ZM292.11 316.51C293.16 307.71 300.73 301.02 309.6 301.07C316.28 301.07 323.6 305.06 324.19 316.51C317.77 316.51 298.52 316.51 292.11 316.51Z" id="i27uQWXnX9"></path><path d="M378.1 300.68C378.1 302.34 378.1 303.26 378.1 303.45C374.72 297.81 368.63 294.34 362.06 294.3C361.96 294.3 361.18 294.3 361.08 294.3C346.91 294.3 337.13 305.53 337.13 322C337.13 338.47 346.49 349.96 360.45 349.96C367.68 350.3 374.53 346.59 378.19 340.34C378.19 340.88 378.19 343.59 378.19 348.47L385.68 348.47L385.68 274.81L378.1 274.81L378.1 300.68ZM361.85 342.98C352.06 342.98 345.59 334.47 345.59 322.13C345.59 309.79 352.45 301.49 362.06 301.49C370.02 301.49 378.1 307.96 378.1 322.13C378.1 337.49 369.59 342.98 361.68 342.98C361.71 342.98 361.82 342.98 361.85 342.98Z" id="cAtdIzmDO"></path><path d="M431.51 301.7C431.51 301.96 431.51 302.1 431.51 302.13C430.02 299.62 425.46 294.21 414.49 294.21C400.53 294.21 391.34 304.85 391.34 321.11C391.34 337.36 400.95 348.38 415.12 348.38C421.77 348.88 428.15 345.58 431.59 339.87C431.59 340.6 431.59 346.46 431.59 347.19C431.59 357.4 425.12 363.23 413.63 363.23C408.68 363.26 403.8 362.11 399.38 359.87C399.35 359.86 399.23 359.79 399 359.66L396.06 366.13C396.32 366.25 396.46 366.32 396.49 366.34C401.84 369.05 407.75 370.51 413.76 370.59C426.06 370.59 439.29 364.34 439.29 347.02C439.29 343.62 439.29 326.6 439.29 295.96L431.51 295.96L431.51 301.7ZM399.04 321.53C399.04 309.23 404.87 301.92 414.87 301.92C425.89 301.92 431.12 308.38 431.12 321.53C431.12 334.68 426.06 341.74 416.06 341.74C405.85 341.74 399.04 333.83 399.04 321.53Z" id="c1YmRyUWvH"></path><path d="M444.61 322.13C444.61 322.32 444.61 323.81 444.61 324C445.07 338.55 457.16 350.26 471.72 350.25C471.82 350.25 472.67 350.25 472.78 350.25C479.96 350.21 486.9 347.62 492.35 342.94C492.11 342.52 490.91 340.45 488.74 336.72C488.48 336.72 488.34 336.72 488.31 336.72C484.07 340.69 478.5 342.92 472.7 342.98C472.55 342.98 472.41 342.98 472.26 342.98C461.5 342.98 452.65 334.13 452.65 323.37C452.65 323.17 452.65 322.97 452.65 322.77C455.34 322.77 468.79 322.77 492.99 322.77L492.99 322.34C492.99 320.09 492.99 318.85 492.99 318.6C492.99 304 484.23 294.43 470.7 294.43C455.25 294.43 444.61 305.87 444.61 322.13ZM452.95 316.51C454.02 307.7 461.61 301.02 470.48 301.07C477.12 301.07 484.44 305.06 485.04 316.51C478.62 316.51 459.37 316.51 452.95 316.51Z" id="c1AMt6G8sN"></path><path d="M525.5 295.45C524.44 295.45 523.63 295.45 522.57 295.02C515.05 295.24 508.44 300.18 506.1 307.32C506.1 306.53 506.1 302.57 506.1 295.45L498.4 295.45L498.4 348.59L506.31 348.59C506.31 335.22 506.31 327.78 506.31 326.3C506.34 322.87 506.9 319.47 507.97 316.21C510.48 308.09 516.1 302.89 522.78 302.89C523.61 302.81 524.45 302.81 525.29 302.89C525.32 302.89 525.46 302.89 525.71 302.89L525.71 295.45C525.6 295.45 525.53 295.45 525.5 295.45Z" id="cz4iE5wZG"></path></defs><g><g><g><use xlink:href="#a3FDEojeEa" opacity="1" fill="#ffffff" fill-opacity="1"></use><g><use xlink:href="#a3FDEojeEa" opacity="1" fill-opacity="0" stroke="#000000" stroke-width="1" stroke-opacity="0"></use></g></g><g><use xlink:href="#bC1NyADQQ" opacity="1" fill="#ffffff" fill-opacity="1"></use><g><use xlink:href="#bC1NyADQQ" opacity="1" fill-opacity="0" stroke="#000000" stroke-width="1" stroke-opacity="0"></use></g></g><g><use xlink:href="#e2oiBZ5HVV" opacity="1" fill="#ffffff" fill-opacity="1"></use><g><use xlink:href="#e2oiBZ5HVV" opacity="1" fill-opacity="0" stroke="#000000" stroke-width="1" stroke-opacity="0"></use></g></g><g><use xlink:href="#a1kiDW7o9T" opacity="1" fill="#ffffff" fill-opacity="1"></use><g><use xlink:href="#a1kiDW7o9T" opacity="1" fill-opacity="0" stroke="#000000" stroke-width="1" stroke-opacity="0"></use></g></g><g><use xlink:href="#aHjqD1aUu" opacity="1" fill="#ffffff" fill-opacity="1"></use><g><use xlink:href="#aHjqD1aUu" opacity="1" fill-opacity="0" stroke="#000000" stroke-width="1" stroke-opacity="0"></use></g></g><g><use xlink:href="#b5x1Fglswp" opacity="1" fill="#ffffff" fill-opacity="1"></use><g><use xlink:href="#b5x1Fglswp" opacity="1" fill-opacity="0" stroke="#000000" stroke-width="1" stroke-opacity="0"></use></g></g><g><use xlink:href="#a93ypKphk2" opacity="1" fill="#ffffff" fill-opacity="1"></use><g><use xlink:href="#a93ypKphk2" opacity="1" fill-opacity="0" stroke="#000000" stroke-width="1" stroke-opacity="0"></use></g></g><g><use xlink:href="#i27uQWXnX9" opacity="1" fill="#ffffff" fill-opacity="1"></use><g><use xlink:href="#i27uQWXnX9" opacity="1" fill-opacity="0" stroke="#000000" stroke-width="1" stroke-opacity="0"></use></g></g><g><use xlink:href="#cAtdIzmDO" opacity="1" fill="#ffffff" fill-opacity="1"></use><g><use xlink:href="#cAtdIzmDO" opacity="1" fill-opacity="0" stroke="#000000" stroke-width="1" stroke-opacity="0"></use></g></g><g><use xlink:href="#c1YmRyUWvH" opacity="1" fill="#ffffff" fill-opacity="1"></use><g><use xlink:href="#c1YmRyUWvH" opacity="1" fill-opacity="0" stroke="#000000" stroke-width="1" stroke-opacity="0"></use></g></g><g><use xlink:href="#c1AMt6G8sN" opacity="1" fill="#ffffff" fill-opacity="1"></use><g><use xlink:href="#c1AMt6G8sN" opacity="1" fill-opacity="0" stroke="#000000" stroke-width="1" stroke-opacity="0"></use></g></g><g><use xlink:href="#cz4iE5wZG" opacity="1" fill="#ffffff" fill-opacity="1"></use><g><use xlink:href="#cz4iE5wZG" opacity="1" fill-opacity="0" stroke="#000000" stroke-width="1" stroke-opacity="0"></use></g></g></g></g></svg>