<?xml version="1.0" encoding="UTF-8" standalone="no"?>
<!DOCTYPE svg PUBLIC "-//W3C//DTD SVG 1.1//EN" "http://www.w3.org/Graphics/SVG/1.1/DTD/svg11.dtd">
<svg version="1.1" xmlns="http://www.w3.org/2000/svg" xmlns:xlink="http://www.w3.org/1999/xlink" preserveAspectRatio="xMidYMid meet" viewBox="0 0 640 640" width="640" height="640"><defs><path d="M518.48 315.46C516.58 314.38 514.55 313.43 512.9 312.07C510.09 309.76 510.67 305.21 513.6 303.23C517.82 300.42 524.8 301.99 525.54 307.73C525.54 307.86 525.66 307.94 525.79 307.94C526.42 307.94 531.51 307.94 532.15 307.94C532.31 307.94 532.44 307.81 532.4 307.65C532.07 303.68 530.54 300.38 527.73 298.27C525.04 296.25 521.99 295.17 518.72 295.17C501.91 295.17 500.38 312.98 509.43 318.6C510.46 319.26 519.34 323.72 522.48 325.66C525.62 327.6 526.61 331.15 525.25 333.96C524.01 336.52 520.79 338.3 517.57 338.09C514.06 337.89 511.33 335.99 510.38 333.01C510.22 332.47 510.13 331.44 510.13 330.99C510.13 330.86 510.01 330.74 509.89 330.74C509.2 330.74 503.68 330.74 502.99 330.74C502.86 330.74 502.74 330.86 502.74 330.99C502.74 335.99 503.98 338.75 507.37 341.27C510.55 343.67 514.02 344.66 517.61 344.66C527.03 344.66 531.9 339.33 532.89 333.8C533.76 328.39 532.15 323.51 527.32 320.29C524.51 318.43 521.41 317.11 518.48 315.46Z" id="a1PFOHZM3B"></path><path d="M224.75 296.08C222.74 296.08 221.62 296.08 221.4 296.08C221.28 296.08 221.2 296.17 221.15 296.25C220.59 298.12 216.06 313.05 215.5 314.92C215.41 315.17 215.08 315.17 215 314.92C214.43 313.05 209.91 298.12 209.34 296.25C209.3 296.12 209.22 296.08 209.09 296.08C208.87 296.08 207.75 296.08 205.75 296.08L202.69 296.08C200.21 296.08 198.83 296.08 198.56 296.08C198.44 296.08 198.31 296.21 198.31 296.33C198.31 301.1 198.31 339.23 198.31 344C198.31 344.12 198.44 344.25 198.56 344.25C199.25 344.25 204.77 344.25 205.46 344.25C205.58 344.25 205.71 344.12 205.71 344C205.71 340.38 205.71 311.4 205.71 307.77C205.71 307.48 206.12 307.44 206.2 307.69C206.58 308.94 208.48 315.21 211.9 326.49C212.15 327.28 212.29 327.72 212.31 327.81C212.36 327.93 212.44 327.97 212.56 327.97C213.09 327.97 217.32 327.97 217.85 327.97C217.97 327.97 218.06 327.89 218.1 327.81C218.12 327.72 218.26 327.28 218.51 326.49C221.93 315.21 223.83 308.94 224.21 307.69C224.29 307.4 224.71 307.48 224.71 307.77C224.71 311.4 224.71 340.38 224.71 344C224.71 344.12 224.83 344.25 224.95 344.25C225.64 344.25 231.16 344.25 231.85 344.25C231.98 344.25 232.1 344.12 232.1 344C232.1 339.23 232.1 301.1 232.1 296.33C232.1 296.21 231.98 296.08 231.85 296.08C231.58 296.08 230.23 296.08 227.8 296.08L224.75 296.08Z" id="bc3PVPB42"></path><path d="M421.45 296.25C420.88 298.12 416.36 313.05 415.79 314.92C415.71 315.17 415.38 315.17 415.29 314.92C414.73 313.05 410.2 298.12 409.63 296.25C409.59 296.12 409.51 296.08 409.39 296.08C408.34 296.08 399.94 296.08 398.9 296.08C398.77 296.08 398.65 296.21 398.65 296.33C398.65 301.1 398.65 339.23 398.65 344C398.65 344.12 398.77 344.25 398.9 344.25C399.58 344.25 405.1 344.25 405.79 344.25C405.92 344.25 406.04 344.12 406.04 344C406.04 340.38 406.04 311.4 406.04 307.77C406.04 307.48 406.45 307.44 406.54 307.69C406.92 308.94 408.82 315.21 412.24 326.49C412.48 327.28 412.62 327.72 412.65 327.81C412.69 327.93 412.77 327.97 412.9 327.97C413.43 327.97 417.66 327.97 418.19 327.97C418.31 327.97 418.39 327.89 418.43 327.81C418.46 327.72 418.6 327.28 418.85 326.49C422.27 315.21 424.17 308.94 424.55 307.69C424.63 307.4 425.04 307.48 425.04 307.77C425.04 311.4 425.04 340.38 425.04 344C425.04 344.12 425.17 344.25 425.29 344.25C425.98 344.25 431.5 344.25 432.19 344.25C432.31 344.25 432.44 344.12 432.44 344C432.44 339.23 432.44 301.1 432.44 296.33C432.44 296.21 432.31 296.08 432.19 296.08C431.49 296.08 427.99 296.08 421.7 296.08C421.56 296.14 421.48 296.19 421.45 296.25Z" id="b2N2z2JkCg"></path><path d="M319.88 296.08L312.98 296.08C305.27 296.08 300.99 296.08 300.13 296.08C300.01 296.08 299.88 296.21 299.88 296.33C299.88 296.93 299.88 301.68 299.88 302.28C299.88 302.4 300.01 302.53 300.13 302.53C300.97 302.53 305.17 302.53 312.73 302.53C312.73 327.41 312.73 341.23 312.73 344C312.73 344.12 312.85 344.25 312.98 344.25C313.67 344.25 319.19 344.25 319.88 344.25C320 344.25 320.12 344.12 320.12 344C320.12 341.23 320.12 327.41 320.12 302.53C327.68 302.53 331.88 302.53 332.72 302.53C332.85 302.53 332.97 302.4 332.97 302.28C332.97 301.68 332.97 296.93 332.97 296.33C332.97 296.21 332.89 296.08 332.72 296.08C331.01 296.08 326.73 296.08 319.88 296.08Z" id="c5DZ0Jb2E"></path><path d="M379.69 344.25C379.85 344.25 379.98 344.08 379.94 343.92C378.64 339.13 368.26 300.87 366.97 296.08C366.92 295.96 366.84 295.92 366.72 295.92C366.56 295.92 365.76 295.92 364.32 295.92L360.11 295.92C358.67 295.92 357.87 295.92 357.71 295.92C357.59 295.92 357.51 296 357.46 296.08C356.17 300.87 345.79 339.13 344.49 343.92C344.45 344.08 344.58 344.25 344.74 344.25C345.37 344.25 350.39 344.25 351.02 344.25C351.14 344.25 351.23 344.16 351.27 344.08C351.64 342.69 354.65 331.55 355.03 330.16C355.07 330.04 355.15 330 355.28 330C356.66 330 367.77 330 369.15 330C369.28 330 369.36 330.08 369.4 330.16C369.78 331.55 372.79 342.69 373.16 344.08C373.2 344.16 373.33 344.25 373.41 344.25C374.66 344.25 379.06 344.25 379.69 344.25ZM361.97 304.55C362.05 304.3 362.38 304.3 362.46 304.55C362.97 306.41 367 321.32 367.5 323.18C367.54 323.35 367.42 323.51 367.25 323.51C366.25 323.51 358.18 323.51 357.18 323.51C357.01 323.51 356.89 323.35 356.93 323.18C357.94 319.45 361.46 306.41 361.97 304.55Z" id="h1W63yD5RS"></path><path d="M486.75 344.25C486.92 344.25 487.04 344.08 487 343.92C485.7 339.13 475.33 300.87 474.03 296.08C473.99 295.96 473.91 295.92 473.78 295.92C473.62 295.92 472.83 295.92 471.39 295.92L467.17 295.92C465.74 295.92 464.94 295.92 464.78 295.92C464.65 295.92 464.57 296 464.53 296.08C463.23 300.87 452.86 339.13 451.56 343.92C451.52 344.08 451.64 344.25 451.81 344.25C452.44 344.25 457.46 344.25 458.09 344.25C458.21 344.25 458.29 344.16 458.33 344.08C458.71 342.69 461.72 331.55 462.09 330.16C462.14 330.04 462.22 330 462.34 330C463.73 330 474.83 330 476.22 330C476.34 330 476.43 330.08 476.47 330.16C476.84 331.55 479.85 342.69 480.23 344.08C480.27 344.16 480.35 344.25 480.48 344.25C481.73 344.25 486.13 344.25 486.75 344.25ZM469.03 304.55C469.12 304.3 469.45 304.3 469.53 304.55C470.03 306.41 474.06 321.32 474.57 323.18C474.61 323.35 474.49 323.51 474.32 323.51C473.31 323.51 465.25 323.51 464.24 323.51C464.08 323.51 463.95 323.35 463.99 323.18C465 319.45 468.53 306.41 469.03 304.55Z" id="a2SgtIP5JH"></path><path d="M260.11 322.4C260.11 322.27 260.23 322.15 260.35 322.15C262.19 322.15 276.9 322.15 278.73 322.15C278.86 322.15 278.98 322.02 278.98 321.9C278.98 321.31 278.98 316.55 278.98 315.95C278.98 315.83 278.86 315.7 278.73 315.7C276.9 315.7 262.19 315.7 260.35 315.7C260.23 315.7 260.11 315.58 260.11 315.46C260.11 314.19 260.11 304.08 260.11 302.82C260.11 302.69 260.23 302.57 260.35 302.57C262.44 302.57 279.16 302.57 281.25 302.57C281.38 302.57 281.5 302.44 281.5 302.32C281.5 301.73 281.5 296.97 281.5 296.37C281.5 296.25 281.38 296.12 281.25 296.12C279.84 296.12 272.8 296.12 260.11 296.12C255.82 296.12 253.44 296.12 252.96 296.12C252.84 296.12 252.71 296.25 252.71 296.37C252.71 296.79 252.71 298.85 252.71 302.57L252.71 315.75L252.71 322.19L252.71 337.47C252.71 341.39 252.71 343.56 252.71 344C252.71 344.12 252.84 344.25 252.96 344.25C253.44 344.25 255.82 344.25 260.11 344.25C273.32 344.25 280.65 344.25 282.12 344.25C282.25 344.25 282.37 344.12 282.37 344C282.37 343.37 282.37 338.35 282.37 337.72C282.37 337.6 282.25 337.47 282.12 337.47C279.94 337.47 262.49 337.47 260.31 337.47C260.19 337.43 260.11 337.35 260.11 337.18C260.11 334.23 260.11 323.87 260.11 322.4Z" id="d4P8jcYDf"></path><path d="M566.47 319.17C566.39 319.09 566.39 318.93 566.47 318.84C568.62 316.61 585.81 298.77 587.95 296.54C588.12 296.37 588 296.12 587.79 296.12C586.91 296.12 579.87 296.12 578.99 296.12C578.91 296.12 578.87 296.17 578.83 296.21C577 298.1 562.43 313.23 560.61 315.13C560.44 315.29 560.2 315.17 560.2 314.96C560.2 313.1 560.2 298.23 560.2 296.37C560.2 296.25 560.07 296.12 559.95 296.12C559.26 296.12 553.74 296.12 553.05 296.12C552.93 296.12 552.8 296.25 552.8 296.37C552.8 301.14 552.8 339.27 552.8 344.04C552.8 344.16 552.93 344.29 553.05 344.29C553.74 344.29 559.26 344.29 559.95 344.29C560.07 344.29 560.2 344.16 560.2 344.04C560.2 341.94 560.2 325.16 560.2 323.06C560.2 322.85 560.49 322.73 560.61 322.89C562.67 325.02 579.2 342.07 581.26 344.21C581.3 344.25 581.39 344.29 581.43 344.29C582.31 344.29 589.35 344.29 590.23 344.29C590.39 344.25 590.52 343.96 590.35 343.83C585.57 338.9 568.86 321.64 566.47 319.17Z" id="d3wGwhYH07"></path><path d="M109.42 301.41L117.19 283.15L151.18 270.43L109.42 301.41Z" id="avJ94resl"></path><path d="M96.24 301.7L88.85 283.15L54.85 270.43L96.24 301.7Z" id="fB0QbRTSH"></path><path d="M125.03 359.28L148.83 365.85L155.64 342.64L136.15 342.26L125.03 359.28Z" id="a14RcVFMLi"></path><path d="M57.21 365.85L80.96 359.28L69.89 342.26L50.44 342.64L57.21 365.85Z" id="bgUsshZZE"></path><path d="M73.07 323.51L96.62 324.59L95.83 299.18L79.68 313.51L73.07 323.51Z" id="etzcN5zqj"></path><path d="M109.96 298.89L109.42 324.59L132.97 323.51L126.36 313.51L109.96 298.89Z" id="d13U9grxTh"></path><path d="M95.21 352.38L82.94 342.8L80.96 359.28L95.21 352.38Z" id="a2ewhXcxj"></path><path d="M125.03 359.28L123.09 342.8L110.82 352.38L125.03 359.28Z" id="apHoNnEVw"></path><path d="M110.82 352.38L111.98 361.64L111.86 365.56L125.03 359.28L110.82 352.38Z" id="a4T5ABgXKd"></path><path d="M94.18 365.56L94.1 361.64L95.21 352.38L80.96 359.28L94.18 365.56Z" id="a4wHLRSCeD"></path><path d="M82.61 333.22L90.96 329.38L94.43 336.69L82.61 333.22Z" id="eCelCJE99"></path><path d="M115.08 329.38L123.46 333.22L111.61 336.69L115.08 329.38Z" id="fvjUKqpRy"></path><path d="M83.03 342.26L69.89 342.64L80.96 359.28L83.03 342.26Z" id="c3tyweW2s"></path><path d="M125.03 359.28L136.15 342.64L123.01 342.26L125.03 359.28Z" id="h2rEfNjfnk"></path><path d="M109.42 324.59L111.61 336.69L115.08 329.38L123.46 333.22L132.97 323.51L109.42 324.59Z" id="a4vvjedMSx"></path><path d="M90.96 329.38L94.43 336.69L96.62 324.59L73.07 323.51L82.61 333.22L90.96 329.38Z" id="a10JzeyNJ3"></path><path d="M82.94 342.8L82.61 333.22L73.07 323.51L82.94 342.8Z" id="abJZ94Elr"></path><path d="M123.09 342.8L132.97 323.51L123.46 333.22L123.09 342.8Z" id="dTJ0dKaZ5"></path><path d="M94.43 336.69L97.19 350.98L97.81 332.14L96.62 324.59L94.43 336.69Z" id="dXRlDQH7h"></path><path d="M108.26 332.1L108.84 350.98L111.61 336.69L109.42 324.59L108.26 332.1Z" id="jr87b7JTt"></path><path d="M108.84 350.98L110.82 352.38L123.09 342.8L123.46 333.22L111.61 336.69L108.84 350.98Z" id="d1jeaINGYO"></path><path d="M82.94 342.8L95.21 352.38L97.19 350.98L94.43 336.69L82.61 333.22L82.94 342.8Z" id="bMJPDE41b"></path><path d="M111.98 361.64L110.91 360.73L95.13 360.73L94.1 361.64L94.18 365.56L80.96 359.28L85.59 363.08L94.96 369.57L111.03 369.57L120.45 363.08L125.03 359.28L111.86 365.56L111.98 361.64Z" id="b29XNN1TMM"></path><path d="M108.84 350.98L97.19 350.98L95.21 352.38L94.1 361.64L95.13 360.73L110.91 360.73L111.98 361.64L110.82 352.38L108.84 350.98Z" id="bc3PXll2u"></path><path d="M156.47 286.34L151.18 270.43L110.82 300.38L126.36 313.51L148.29 319.92L153.12 314.26L151.02 312.73L154.36 309.67L151.8 307.69L155.15 305.13L152.96 303.44L156.47 286.34Z" id="a4RzGtnghD"></path><path d="M53.12 303.44L50.85 305.13L54.24 307.69L51.67 309.67L55.02 312.73L52.91 314.26L57.75 319.92L79.68 313.51L95.21 300.38L54.85 270.43L49.57 286.34L53.12 303.44Z" id="d1lqILmv2b"></path><path d="M126.36 313.51L132.97 323.51L123.09 342.8L136.15 342.64L155.64 342.64L148.29 319.92L126.36 313.51Z" id="aGiYV09E8"></path><path d="M57.75 319.92L50.44 342.64L69.89 342.64L82.94 342.8L73.07 323.51L79.68 313.51L57.75 319.92Z" id="o3GOJMCcDu"></path><path d="M110.82 300.38L117.19 283.15L88.85 283.15L95.21 300.38L96.62 324.59L97.15 332.19L97.19 350.98L108.84 350.98L108.88 332.19L109.42 324.59L110.82 300.38Z" id="dJCzdTlEs"></path></defs><g><g><g><use xlink:href="#a1PFOHZM3B" opacity="1" fill="#ffffff" fill-opacity="1"></use><g><use xlink:href="#a1PFOHZM3B" opacity="1" fill-opacity="0" stroke="#000000" stroke-width="1" stroke-opacity="0"></use></g></g><g><use xlink:href="#bc3PVPB42" opacity="1" fill="#ffffff" fill-opacity="1"></use><g><use xlink:href="#bc3PVPB42" opacity="1" fill-opacity="0" stroke="#000000" stroke-width="1" stroke-opacity="0"></use></g></g><g><use xlink:href="#b2N2z2JkCg" opacity="1" fill="#ffffff" fill-opacity="1"></use><g><use xlink:href="#b2N2z2JkCg" opacity="1" fill-opacity="0" stroke="#000000" stroke-width="1" stroke-opacity="0"></use></g></g><g><use xlink:href="#c5DZ0Jb2E" opacity="1" fill="#ffffff" fill-opacity="1"></use><g><use xlink:href="#c5DZ0Jb2E" opacity="1" fill-opacity="0" stroke="#000000" stroke-width="1" stroke-opacity="0"></use></g></g><g><use xlink:href="#h1W63yD5RS" opacity="1" fill="#ffffff" fill-opacity="1"></use><g><use xlink:href="#h1W63yD5RS" opacity="1" fill-opacity="0" stroke="#000000" stroke-width="1" stroke-opacity="0"></use></g></g><g><use xlink:href="#a2SgtIP5JH" opacity="1" fill="#ffffff" fill-opacity="1"></use><g><use xlink:href="#a2SgtIP5JH" opacity="1" fill-opacity="0" stroke="#000000" stroke-width="1" stroke-opacity="0"></use></g></g><g><use xlink:href="#d4P8jcYDf" opacity="1" fill="#ffffff" fill-opacity="1"></use><g><use xlink:href="#d4P8jcYDf" opacity="1" fill-opacity="0" stroke="#000000" stroke-width="1" stroke-opacity="0"></use></g></g><g><use xlink:href="#d3wGwhYH07" opacity="1" fill="#ffffff" fill-opacity="1"></use><g><use xlink:href="#d3wGwhYH07" opacity="1" fill-opacity="0" stroke="#000000" stroke-width="1" stroke-opacity="0"></use></g></g><g><use xlink:href="#avJ94resl" opacity="1" fill="#e17726" fill-opacity="1"></use><g><use xlink:href="#avJ94resl" opacity="1" fill-opacity="0" stroke="#e17726" stroke-width="1" stroke-opacity="1"></use></g></g><g><use xlink:href="#fB0QbRTSH" opacity="1" fill="#e27625" fill-opacity="1"></use><g><use xlink:href="#fB0QbRTSH" opacity="1" fill-opacity="0" stroke="#e27625" stroke-width="1" stroke-opacity="1"></use></g></g><g><use xlink:href="#a14RcVFMLi" opacity="1" fill="#e27625" fill-opacity="1"></use><g><use xlink:href="#a14RcVFMLi" opacity="1" fill-opacity="0" stroke="#e27625" stroke-width="1" stroke-opacity="1"></use></g></g><g><use xlink:href="#bgUsshZZE" opacity="1" fill="#e27625" fill-opacity="1"></use><g><use xlink:href="#bgUsshZZE" opacity="1" fill-opacity="0" stroke="#e27625" stroke-width="1" stroke-opacity="1"></use></g></g><g><use xlink:href="#etzcN5zqj" opacity="1" fill="#e27625" fill-opacity="1"></use><g><use xlink:href="#etzcN5zqj" opacity="1" fill-opacity="0" stroke="#e27625" stroke-width="1" stroke-opacity="1"></use></g></g><g><use xlink:href="#d13U9grxTh" opacity="1" fill="#e27625" fill-opacity="1"></use><g><use xlink:href="#d13U9grxTh" opacity="1" fill-opacity="0" stroke="#e27625" stroke-width="1" stroke-opacity="1"></use></g></g><g><use xlink:href="#a2ewhXcxj" opacity="1" fill="#e27625" fill-opacity="1"></use><g><use xlink:href="#a2ewhXcxj" opacity="1" fill-opacity="0" stroke="#e27625" stroke-width="1" stroke-opacity="1"></use></g></g><g><use xlink:href="#apHoNnEVw" opacity="1" fill="#e27625" fill-opacity="1"></use><g><use xlink:href="#apHoNnEVw" opacity="1" fill-opacity="0" stroke="#e27625" stroke-width="1" stroke-opacity="1"></use></g></g><g><use xlink:href="#a4T5ABgXKd" opacity="1" fill="#d5bfb2" fill-opacity="1"></use><g><use xlink:href="#a4T5ABgXKd" opacity="1" fill-opacity="0" stroke="#d5bfb2" stroke-width="1" stroke-opacity="1"></use></g></g><g><use xlink:href="#a4wHLRSCeD" opacity="1" fill="#d5bfb2" fill-opacity="1"></use><g><use xlink:href="#a4wHLRSCeD" opacity="1" fill-opacity="0" stroke="#d5bfb2" stroke-width="1" stroke-opacity="1"></use></g></g><g><use xlink:href="#eCelCJE99" opacity="1" fill="#233447" fill-opacity="1"></use><g><use xlink:href="#eCelCJE99" opacity="1" fill-opacity="0" stroke="#233447" stroke-width="1" stroke-opacity="1"></use></g></g><g><use xlink:href="#fvjUKqpRy" opacity="1" fill="#233447" fill-opacity="1"></use><g><use xlink:href="#fvjUKqpRy" opacity="1" fill-opacity="0" stroke="#233447" stroke-width="1" stroke-opacity="1"></use></g></g><g><use xlink:href="#c3tyweW2s" opacity="1" fill="#cc6228" fill-opacity="1"></use><g><use xlink:href="#c3tyweW2s" opacity="1" fill-opacity="0" stroke="#cc6228" stroke-width="1" stroke-opacity="1"></use></g></g><g><use xlink:href="#h2rEfNjfnk" opacity="1" fill="#cc6228" fill-opacity="1"></use><g><use xlink:href="#h2rEfNjfnk" opacity="1" fill-opacity="0" stroke="#cc6228" stroke-width="1" stroke-opacity="1"></use></g></g><g><use xlink:href="#a4vvjedMSx" opacity="1" fill="#cc6228" fill-opacity="1"></use><g><use xlink:href="#a4vvjedMSx" opacity="1" fill-opacity="0" stroke="#cc6228" stroke-width="1" stroke-opacity="1"></use></g></g><g><use xlink:href="#a10JzeyNJ3" opacity="1" fill="#cc6228" fill-opacity="1"></use><g><use xlink:href="#a10JzeyNJ3" opacity="1" fill-opacity="0" stroke="#cc6228" stroke-width="1" stroke-opacity="1"></use></g></g><g><use xlink:href="#abJZ94Elr" opacity="1" fill="#e27525" fill-opacity="1"></use><g><use xlink:href="#abJZ94Elr" opacity="1" fill-opacity="0" stroke="#e27525" stroke-width="1" stroke-opacity="1"></use></g></g><g><use xlink:href="#dTJ0dKaZ5" opacity="1" fill="#e27525" fill-opacity="1"></use><g><use xlink:href="#dTJ0dKaZ5" opacity="1" fill-opacity="0" stroke="#e27525" stroke-width="1" stroke-opacity="1"></use></g></g><g><use xlink:href="#dXRlDQH7h" opacity="1" fill="#e27525" fill-opacity="1"></use><g><use xlink:href="#dXRlDQH7h" opacity="1" fill-opacity="0" stroke="#e27525" stroke-width="1" stroke-opacity="1"></use></g></g><g><use xlink:href="#jr87b7JTt" opacity="1" fill="#e27525" fill-opacity="1"></use><g><use xlink:href="#jr87b7JTt" opacity="1" fill-opacity="0" stroke="#e27525" stroke-width="1" stroke-opacity="1"></use></g></g><g><use xlink:href="#d1jeaINGYO" opacity="1" fill="#f5841f" fill-opacity="1"></use><g><use xlink:href="#d1jeaINGYO" opacity="1" fill-opacity="0" stroke="#f5841f" stroke-width="1" stroke-opacity="1"></use></g></g><g><use xlink:href="#bMJPDE41b" opacity="1" fill="#f5841f" fill-opacity="1"></use><g><use xlink:href="#bMJPDE41b" opacity="1" fill-opacity="0" stroke="#f5841f" stroke-width="1" stroke-opacity="1"></use></g></g><g><use xlink:href="#b29XNN1TMM" opacity="1" fill="#c0ac9d" fill-opacity="1"></use><g><use xlink:href="#b29XNN1TMM" opacity="1" fill-opacity="0" stroke="#c0ac9d" stroke-width="1" stroke-opacity="1"></use></g></g><g><use xlink:href="#bc3PXll2u" opacity="1" fill="#161616" fill-opacity="1"></use><g><use xlink:href="#bc3PXll2u" opacity="1" fill-opacity="0" stroke="#161616" stroke-width="1" stroke-opacity="1"></use></g></g><g><use xlink:href="#a4RzGtnghD" opacity="1" fill="#763e1a" fill-opacity="1"></use><g><use xlink:href="#a4RzGtnghD" opacity="1" fill-opacity="0" stroke="#763e1a" stroke-width="1" stroke-opacity="1"></use></g></g><g><use xlink:href="#d1lqILmv2b" opacity="1" fill="#763e1a" fill-opacity="1"></use><g><use xlink:href="#d1lqILmv2b" opacity="1" fill-opacity="0" stroke="#763e1a" stroke-width="1" stroke-opacity="1"></use></g></g><g><use xlink:href="#aGiYV09E8" opacity="1" fill="#f5841f" fill-opacity="1"></use><g><use xlink:href="#aGiYV09E8" opacity="1" fill-opacity="0" stroke="#f5841f" stroke-width="1" stroke-opacity="1"></use></g></g><g><use xlink:href="#o3GOJMCcDu" opacity="1" fill="#f5841f" fill-opacity="1"></use><g><use xlink:href="#o3GOJMCcDu" opacity="1" fill-opacity="0" stroke="#f5841f" stroke-width="1" stroke-opacity="1"></use></g></g><g><use xlink:href="#dJCzdTlEs" opacity="1" fill="#f5841f" fill-opacity="1"></use><g><use xlink:href="#dJCzdTlEs" opacity="1" fill-opacity="0" stroke="#f5841f" stroke-width="1" stroke-opacity="1"></use></g></g></g></g></svg>