<svg width="157" height="135" viewBox="0 0 157 135" fill="none" xmlns="http://www.w3.org/2000/svg">
<path fill-rule="evenodd" clip-rule="evenodd" d="M13 0C20.1797 0 26 5.8203 26 13C26 19.4996 21.2302 24.8851 15 25.8471V34H37V24H120V34H142V25.8471C135.77 24.8851 131 19.4996 131 13C131 5.8203 136.82 0 144 0C151.18 0 157 5.8203 157 13C157 19.4996 152.23 24.8851 146 25.8471V38H120V65H132V55H156V79H132V69H120V97H146V109.153C152.23 110.115 157 115.5 157 122C157 129.18 151.18 135 144 135C136.82 135 131 129.18 131 122C131 115.5 135.77 110.115 142 109.153V101H120V111H37V101H15V109.153C21.2302 110.115 26 115.5 26 122C26 129.18 20.1797 135 13 135C5.8203 135 0 129.18 0 122C0 115.5 4.76982 110.115 11 109.153V97H37V69H25V79H1V55H25V65H37V38H11V25.8471C4.76982 24.8851 0 19.4996 0 13C0 5.8203 5.8203 0 13 0ZM41 41H116V107H41V41ZM116 28H41V37H116V28ZM106 30.5H110V34.5H106V30.5ZM102 30.5H98V34.5H102V30.5ZM90 30.5H94V34.5H90V30.5ZM90.5 77.4167L78.4967 94.5L66.5 77.4167L78.4967 84.5758L90.5 77.4167ZM78.5 80.8333L90.5 73.6545L78.5 53.5L66.5 73.6545L78.5 80.8333ZM13 131C17.9706 131 22 126.971 22 122C22 117.029 17.9706 113 13 113C8.02944 113 4 117.029 4 122C4 126.971 8.02944 131 13 131ZM22 13C22 8.02944 17.9706 4 13 4C8.02944 4 4 8.02944 4 13C4 17.9706 8.02944 22 13 22C17.9706 22 22 17.9706 22 13ZM144 131C139.029 131 135 126.971 135 122C135 117.029 139.029 113 144 113C148.971 113 153 117.029 153 122C153 126.971 148.971 131 144 131ZM135 13C135 8.02944 139.029 4 144 4C148.971 4 153 8.02944 153 13C153 17.9706 148.971 22 144 22C139.029 22 135 17.9706 135 13ZM152 59H136V75H152V59ZM21 59H5V75H21V59Z" fill="#7AF4C1"/>
</svg>
